HIERARCHY
ROOT Hips
{
	OFFSET 0.00000 0.00000 0.00000
	CHANNELS 6 Xposition Yposition Zposition Zrotation Yrotation Xrotation 
	JOINT LHipJoint
	{
		OFFSET 0 0 0
		CHANNELS 3 Zrotation Yrotation Xrotation
		JOINT LeftUpLeg
		{
			OFFSET 1.53139 -1.83434 0.76626
			CHANNELS 3 Zrotation Yrotation Xrotation
			JOINT LeftLeg
			{
				OFFSET 2.56112 -7.03663 0.00000
				CHANNELS 3 Zrotation Yrotation Xrotation
				JOINT LeftFoot
				{
					OFFSET 2.59983 -7.14299 0.00000
					CHANNELS 3 Zrotation Yrotation Xrotation
					JOINT LeftToeBase
					{
						OFFSET 0.13742 -0.37757 2.00054
						CHANNELS 3 Zrotation Yrotation Xrotation
						End Site
						{
							OFFSET 0.00000 -0.00000 1.02897
						}
					}
				}
			}
		}
	}
	JOINT RHipJoint
	{
		OFFSET 0 0 0
		CHANNELS 3 Zrotation Yrotation Xrotation
		JOINT RightUpLeg
		{
			OFFSET -1.40122 -1.83435 0.76627
			CHANNELS 3 Zrotation Yrotation Xrotation
			JOINT RightLeg
			{
				OFFSET -2.54052 -6.98003 0.00000
				CHANNELS 3 Zrotation Yrotation Xrotation
				JOINT RightFoot
				{
					OFFSET -2.63179 -7.23079 0.00000
					CHANNELS 3 Zrotation Yrotation Xrotation
					JOINT RightToeBase
					{
						OFFSET -0.24131 -0.66299 2.03908
						CHANNELS 3 Zrotation Yrotation Xrotation
						End Site
						{
							OFFSET -0.00000 -0.00000 1.07391
						}
					}
				}
			}
		}
	}
	JOINT LowerBack
	{
		OFFSET 0 0 0
		CHANNELS 3 Zrotation Yrotation Xrotation
		JOINT Spine
		{
			OFFSET 0.01174 2.10302 -0.29778
			CHANNELS 3 Zrotation Yrotation Xrotation
			JOINT Spine1
			{
				OFFSET 0.00772 2.13227 -0.01247
				CHANNELS 3 Zrotation Yrotation Xrotation
				JOINT Neck
				{
					OFFSET 0 0 0
					CHANNELS 3 Zrotation Yrotation Xrotation
					JOINT Neck1
					{
						OFFSET -0.09219 1.60848 0.31481
						CHANNELS 3 Zrotation Yrotation Xrotation
						JOINT Head
						{
							OFFSET 0.13974 1.65456 -0.31134
							CHANNELS 3 Zrotation Yrotation Xrotation
							End Site
							{
								OFFSET 0.04742 1.69515 -0.14578
							}
						}
					}
				}
				JOINT LeftShoulder
				{
					OFFSET 0 0 0
					CHANNELS 3 Zrotation Yrotation Xrotation
					JOINT LeftArm
					{
						OFFSET 3.24909 1.02882 -0.23993
						CHANNELS 3 Zrotation Yrotation Xrotation
						JOINT LeftForeArm
						{
							OFFSET 5.32955 -0.00000 -0.00000
							CHANNELS 3 Zrotation Yrotation Xrotation
							JOINT LeftHand
							{
								OFFSET 3.69232 -0.00000 -0.00000
								CHANNELS 3 Zrotation Yrotation Xrotation
								JOINT LeftFingerBase
								{
									OFFSET 0 0 0
									CHANNELS 3 Zrotation Yrotation Xrotation
									JOINT LeftHandIndex1
									{
										OFFSET 0.53660 -0.00000 -0.00000
										CHANNELS 3 Zrotation Yrotation Xrotation
										End Site
										{
											OFFSET 0.43262 -0.00000 -0.00000
										}
									}
								}
								JOINT LThumb
								{
									OFFSET 0 0 0
									CHANNELS 3 Zrotation Yrotation Xrotation
									End Site
									{
										OFFSET 0.43922 -0.00000 0.43922
									}
								}
							}
						}
					}
				}
				JOINT RightShoulder
				{
					OFFSET 0 0 0
					CHANNELS 3 Zrotation Yrotation Xrotation
					JOINT RightArm
					{
						OFFSET -3.21387 0.93002 -0.34594
						CHANNELS 3 Zrotation Yrotation Xrotation
						JOINT RightForeArm
						{
							OFFSET -5.23431 -0.00000 0.00000
							CHANNELS 3 Zrotation Yrotation Xrotation
							JOINT RightHand
							{
								OFFSET -3.55301 -0.00000 -0.00000
								CHANNELS 3 Zrotation Yrotation Xrotation
								JOINT RightFingerBase
								{
									OFFSET 0 0 0
									CHANNELS 3 Zrotation Yrotation Xrotation
									JOINT RightHandIndex1
									{
										OFFSET -0.77252 -0.00000 -0.00000
										CHANNELS 3 Zrotation Yrotation Xrotation
										End Site
										{
											OFFSET -0.62283 -0.00000 -0.00000
										}
									}
								}
								JOINT RThumb
								{
									OFFSET 0 0 0
									CHANNELS 3 Zrotation Yrotation Xrotation
									End Site
									{
										OFFSET -0.63234 -0.00000 0.63234
									}
								}
							}
						}
					}
				}
			}
		}
	}
}
MOTION
Frames: 10
Frame Time: .0083333
-1.1919 18.0615 -1.6168 2.7074 -40.2441 -1082.2800 0.0000 0.0000 0.0000 -23.0729 -1.6118 6.5261 3.5386 11.5198 34.0536 0.3672 -8.4359 17.4889 0.6712 -5.2388 -14.5911 0.0000 0.0000 0.0000 22.0224 0.3916 -18.4211 -1.5786 -7.9268 22.4919 -0.0644 -1.1192 -5.3439 -0.3315 -3.7002 10.2348 -2.1149 0.4662 9.7412 0.7585 0.4151 0.6315 1.9254 0.2533 -4.8287 -9.7260 -3.8405 -21.7397 6.4934 -4.0497 25.6343 3.4204 -1.9366 12.4553 0.0000 -0.0000 0.0000 -85.0535 0.4373 26.6113 17.8280 -27.9364 -4.4684 -0.0000 -0.0000 6.8559 16.6269 22.5054 6.5209 -7.1250 0.0000 -0.0000 -12.7501 52.9144 -2.5155 0.0000 -0.0000 0.0000 88.4081 -8.0294 13.8344 -14.4059 23.3121 -2.9869 0.0000 0.0000 7.4003 -15.9983 9.1801 -2.6190 7.1250 -0.0000 -0.0000 7.8348 -20.4775 4.6418
-1.2980 18.0787 -1.5327 2.2720 -40.3192 -1082.1200 0.0000 0.0000 0.0000 -22.5756 -2.1406 5.2679 4.0563 12.2349 36.5682 0.5563 -8.2661 19.4532 0.3242 -3.6598 -10.1215 0.0000 0.0000 0.0000 22.5671 -0.0028 -17.5300 -1.4852 -7.6994 21.8048 -0.0698 -0.9680 -5.4449 -0.3285 -3.6836 10.1882 -1.8038 0.5002 9.8973 0.8593 0.4966 0.6221 1.8434 0.2888 -4.9281 -9.7029 -3.9070 -21.7284 6.4004 -4.1243 25.5991 3.3664 -1.9792 12.4440 -0.0000 0.0000 0.0000 -85.0708 0.9389 27.0618 17.7136 -27.7890 -4.4149 -0.0000 -0.0000 6.9059 17.2675 21.8885 6.6101 -7.1250 0.0000 -0.0000 -11.8598 52.4115 -2.1886 -0.0000 0.0000 0.0000 88.3374 -7.9716 14.0592 -14.5235 23.4782 -3.0336 0.0000 0.0000 7.3165 -16.0239 9.0287 -2.5805 7.1250 -0.0000 -0.0000 7.8195 -20.6318 4.6052
-1.4024 18.0932 -1.4503 1.8131 -40.5301 -1081.9400 0.0000 0.0000 0.0000 -22.0546 -2.5690 4.0075 4.5895 12.9060 39.0176 0.7901 -7.7867 21.3646 0.0370 -1.2411 -3.4124 0.0000 0.0000 0.0000 23.1704 -0.4482 -16.6919 -1.3953 -7.4730 21.1244 -0.0730 -0.6877 -5.4040 -0.2379 -3.1389 8.6658 -1.4810 0.5547 10.0891 0.9643 0.6077 0.6100 1.7545 0.3386 -5.0510 -9.8253 -3.9571 -21.7469 6.4759 -4.1743 25.6224 3.4082 -2.0036 12.4672 -0.0000 0.0000 0.0000 -85.1494 1.4368 27.2517 17.6033 -27.6463 -4.3636 -0.0000 -0.0000 7.2487 16.7651 22.6452 6.6161 -7.1250 0.0000 -0.0000 -12.6728 53.0785 -2.5511 -0.0000 0.0000 0.0000 88.2009 -7.9408 14.3959 -14.6576 23.6669 -3.0872 0.0000 0.0000 7.2076 -16.0279 9.0457 -2.5860 7.1250 -0.0000 -0.0000 7.8163 -20.6141 4.6064
-1.5052 18.1075 -1.3698 1.4125 -40.7400 -1081.8200 0.0000 0.0000 0.0000 -21.5583 -2.9397 2.7436 5.1332 13.5322 41.3949 0.9868 -7.6262 23.0010 0.0124 0.7198 1.9782 0.0000 0.0000 0.0000 23.7098 -0.9713 -15.9061 -1.3119 -7.2551 20.4734 -0.0750 -0.2719 -5.2789 -0.1919 -2.8208 7.7803 -1.2071 0.6121 10.2931 1.0409 0.7168 0.6116 1.6632 0.3875 -5.1657 -9.8675 -3.9482 -21.6520 6.5504 -4.1719 25.4863 3.4418 -1.9963 12.3968 0.0000 -0.0000 0.0000 -85.2256 1.8368 27.2986 17.4652 -27.4669 -4.2997 -0.0000 -0.0000 7.8061 16.0193 23.1227 6.4328 -7.1250 0.0000 -0.0000 -13.6253 53.4172 -2.8623 0.0000 -0.0000 0.0000 88.0753 -7.8829 14.7806 -14.8060 23.8752 -3.1470 0.0000 0.0000 7.0033 -15.9844 9.2506 -2.6365 7.1250 -0.0000 -0.0000 7.8433 -20.4057 4.6597
-1.6052 18.1197 -1.2930 0.9409 -40.9661 -1081.6400 0.0000 0.0000 0.0000 -20.9470 -3.1994 1.4368 5.6787 14.1096 43.6783 1.1100 -7.8423 24.1865 0.0763 1.7814 4.9018 0.0000 0.0000 0.0000 24.2565 -1.2640 -15.0680 -1.2395 -7.0598 19.8926 -0.0773 0.0402 -5.2356 -0.2120 -2.9646 8.1801 -0.8899 0.6719 10.5174 1.1470 0.8374 0.5819 1.5758 0.4416 -5.3242 -9.8960 -3.9136 -21.4914 6.5579 -4.1262 25.3761 3.4553 -1.9790 12.3173 -0.0000 0.0000 0.0000 -85.2796 2.2648 27.5480 17.3353 -27.2977 -4.2400 -0.0000 -0.0000 8.1756 15.6027 23.5207 6.3591 -7.1250 0.0000 -0.0000 -14.2233 53.7335 -3.1029 -0.0000 0.0000 0.0000 87.8879 -7.9226 15.4240 -15.0147 24.1666 -3.2320 0.0000 0.0000 6.6401 -16.1981 9.1461 -2.6437 7.1250 -0.0000 -0.0000 7.6924 -20.5017 4.5517
-1.7025 18.1264 -1.2198 0.4360 -41.1995 -1081.4200 0.0000 0.0000 0.0000 -20.3055 -3.4173 0.1448 6.2125 14.6312 45.8287 1.1038 -8.3883 24.5410 0.0988 2.0273 5.5810 0.0000 0.0000 0.0000 24.7903 -1.3565 -14.2527 -1.1861 -6.9116 19.4537 -0.0840 0.1548 -5.4201 -0.2463 -3.1938 8.8187 -0.5096 0.7439 10.6951 1.2176 0.9815 0.5858 1.4119 0.5042 -5.4194 -9.9117 -3.9644 -21.4752 6.5866 -4.2044 25.3802 3.4556 -2.0120 12.3248 -0.0000 0.0000 0.0000 -85.2834 2.6662 27.8640 17.2471 -27.1824 -4.1996 -0.0000 -0.0000 8.5341 15.4731 23.7285 6.3561 -7.1250 0.0000 -0.0000 -14.4509 53.9138 -3.2184 -0.0000 0.0000 0.0000 87.7394 -7.9635 16.1338 -15.2927 24.5523 -3.3466 0.0000 0.0000 6.1341 -16.3208 8.8059 -2.5666 7.1250 -0.0000 -0.0000 7.6110 -20.8456 4.4432
-1.7996 18.1315 -1.1455 -0.1040 -41.4950 -1081.1700 0.0000 0.0000 0.0000 -19.6666 -3.5692 -1.0685 6.7216 15.0929 47.8134 0.9720 -8.9408 23.8919 0.0602 1.5831 4.3549 0.0000 0.0000 0.0000 25.3416 -1.4934 -13.5338 -1.1506 -6.8108 19.1562 -0.0942 0.3624 -5.6782 -0.3033 -3.5407 9.7879 -0.1378 0.8222 10.8448 1.2967 1.1342 0.6214 1.2604 0.5705 -5.4648 -9.8394 -4.0024 -21.4225 6.5516 -4.2737 25.2678 3.4154 -2.0393 12.2741 -0.0000 0.0000 0.0000 -85.3130 3.0292 28.1934 17.1262 -27.0238 -4.1445 -0.0000 -0.0000 8.6297 16.1450 23.1586 6.4951 -7.1250 0.0000 -0.0000 -13.5163 53.4757 -2.8582 -0.0000 0.0000 0.0000 87.6016 -7.8513 16.7199 -15.5241 24.8712 -3.4434 0.0000 0.0000 5.7309 -16.1776 9.0253 -2.6056 7.1250 -0.0000 -0.0000 7.7094 -20.6272 4.5399
-1.8957 18.1343 -1.0677 -0.5144 -41.7790 -1080.9800 0.0000 0.0000 0.0000 -19.1969 -3.8171 -2.2133 7.1967 15.4953 49.6145 0.8044 -9.0421 22.5291 0.0130 0.7369 2.0251 0.0000 0.0000 0.0000 25.7694 -1.4988 -12.8449 -1.1273 -6.7438 18.9586 -0.1044 0.4794 -5.9495 -0.3635 -3.8731 10.7200 0.1863 0.9383 10.9127 1.3300 1.3288 0.6703 1.0817 0.6581 -5.4495 -9.8503 -4.0507 -21.2750 6.6312 -4.3677 25.0649 3.4277 -2.0711 12.1767 0.0000 -0.0000 0.0000 -85.2829 3.2999 28.6787 16.9877 -26.8416 -4.0818 -0.0000 -0.0000 8.4805 16.7506 23.1692 6.7535 -7.1250 0.0000 -0.0000 -12.9165 53.5973 -2.7666 0.0000 -0.0000 0.0000 87.5808 -7.4733 16.6751 -15.5576 24.9171 -3.4575 0.0000 0.0000 5.8562 -15.8610 10.0265 -2.8319 7.1250 -0.0000 -0.0000 7.9177 -19.6156 4.8463
-1.9896 18.1342 -0.9898 -0.8024 -42.0115 -1080.8700 0.0000 0.0000 0.0000 -18.8233 -4.0630 -3.3295 7.6357 15.8447 51.2396 0.6391 -8.9563 20.9105 0.0002 -0.1012 -0.2780 0.0000 0.0000 0.0000 26.0841 -1.4630 -12.2029 -1.1174 -6.7152 18.8742 -0.1149 0.5793 -6.2220 -0.3723 -3.9190 10.8488 0.4305 1.0382 10.9680 1.3266 1.4903 0.7268 0.9152 0.7310 -5.4177 -9.8853 -4.0682 -21.1983 6.8250 -4.4415 24.9727 3.4939 -2.0823 12.1383 -0.0000 -0.0000 0.0000 -85.2176 3.5091 28.9755 16.8518 -26.6619 -4.0206 -0.0000 -0.0000 8.7702 16.3345 23.5581 6.6809 -7.1250 0.0000 -0.0000 -13.5095 53.9061 -3.0000 -0.0000 -0.0000 0.0000 87.5537 -7.1131 16.7608 -15.6231 25.0070 -3.4851 0.0000 0.0000 5.9583 -15.6434 10.7738 -2.9964 7.1250 -0.0000 -0.0000 8.0613 -18.8622 5.0725
-2.0847 18.1351 -0.9141 -0.9364 -42.1636 -1080.8900 0.0000 0.0000 0.0000 -18.5820 -4.3039 -4.3926 8.0331 16.1435 52.6818 0.4558 -9.0713 19.1293 0.0144 -0.7742 -2.1278 0.0000 0.0000 0.0000 26.2782 -1.5868 -11.6645 -1.1203 -6.7236 18.8992 -0.1283 0.7496 -6.5412 -0.3361 -3.7258 10.3065 0.5340 1.1118 11.0476 1.2979 1.5984 0.7879 0.8093 0.7809 -5.3958 -9.8457 -4.0871 -21.1100 6.9071 -4.5077 24.8227 3.5044 -2.0968 12.0697 -0.0000 0.0000 0.0000 -85.1842 3.6564 29.1401 16.6437 -26.3856 -3.9277 -0.0000 -0.0000 9.3608 15.8667 23.6403 6.5022 -7.1250 0.0000 -0.0000 -14.0160 53.9002 -3.1138 -0.0000 0.0000 0.0000 87.4462 -6.8724 17.2610 -15.7918 25.2376 -3.5567 0.0000 0.0000 5.5173 -15.4158 11.2928 -3.0908 7.1250 -0.0000 -0.0000 8.2154 -18.3455 5.2665
